<svg width="32" height="32" viewBox="0 0 32 32" fill="none" xmlns="http://www.w3.org/2000/svg">
<path fill-rule="evenodd" clip-rule="evenodd" d="M18.0336 7.36297C17.1451 7.20143 16.2296 7.19897 15.34 7.35573C14.4505 7.5125 13.6068 7.82496 12.857 8.27299C11.3422 9.17803 10.3092 10.5745 9.95772 12.1401C9.89213 12.4323 9.63271 12.64 9.33326 12.64C7.83041 12.64 6.39453 13.2113 5.34015 14.2198C4.28674 15.2274 3.70053 16.5878 3.70053 18C3.70053 19.4121 4.28674 20.7725 5.34015 21.7801C6.39453 22.7886 7.83041 23.36 9.33326 23.36C9.68672 23.36 9.97326 23.6465 9.97326 24C9.97326 24.3534 9.68672 24.64 9.33326 24.64C7.50884 24.64 5.75374 23.947 4.45539 22.7051C3.15607 21.4623 2.42053 19.7704 2.42053 18C2.42053 16.2295 3.15607 14.5377 4.45539 13.2948C5.63526 12.1663 7.19234 11.491 8.83585 11.3772C9.35982 9.6463 10.5597 8.1545 12.2005 7.17417C13.0877 6.64409 14.0791 6.27822 15.1179 6.09516C16.1567 5.91209 17.225 5.91496 18.2626 6.10362C19.3002 6.29227 20.2893 6.6635 21.173 7.19841C22.0569 7.73338 22.8195 8.42251 23.4146 9.22929C24.0099 10.0363 24.4254 10.9447 24.634 11.9034C24.7864 12.6036 24.8257 13.3188 24.7521 14.0266H25.3333C26.7407 14.0266 28.0904 14.5857 29.0856 15.5809C30.0808 16.5761 30.6399 17.9259 30.6399 19.3333C30.6399 20.7407 30.0808 22.0905 29.0856 23.0857C28.0904 24.0809 26.7407 24.64 25.3333 24.64H23.9999C23.6465 24.64 23.3599 24.3534 23.3599 24C23.3599 23.6465 23.6465 23.36 23.9999 23.36H25.3333C26.4012 23.36 27.4254 22.9357 28.1805 22.1806C28.9357 21.4254 29.3599 20.4012 29.3599 19.3333C29.3599 18.2654 28.9357 17.2412 28.1805 16.486C27.4254 15.7309 26.4012 15.3066 25.3333 15.3066H23.9999C23.8056 15.3066 23.6217 15.2183 23.5003 15.0666C23.3788 14.9148 23.3329 14.7161 23.3755 14.5265C23.5496 13.7506 23.5523 12.9522 23.3833 12.1755C23.2143 11.3986 22.8761 10.6555 22.3846 9.98911C21.8929 9.32253 21.2569 8.74539 20.5103 8.29346C19.7635 7.84147 18.922 7.52451 18.0336 7.36297ZM16 15.36C16.1697 15.36 16.3325 15.4275 16.4525 15.5475L20.4525 19.5475C20.7025 19.7974 20.7025 20.2026 20.4525 20.4526C20.2026 20.7025 19.7974 20.7025 19.5474 20.4526L16.64 17.5451V28C16.64 28.3535 16.3534 28.64 16 28.64C15.6465 28.64 15.36 28.3535 15.36 28V17.5451L12.4525 20.4526C12.2026 20.7025 11.7974 20.7025 11.5474 20.4526C11.2975 20.2026 11.2975 19.7974 11.5474 19.5475L15.5474 15.5475C15.6675 15.4275 15.8302 15.36 16 15.36Z" fill="#235A9D"/>
</svg>
