<svg width="48" height="48" viewBox="0 0 48 48" fill="none" xmlns="http://www.w3.org/2000/svg">
<rect width="48" height="48" rx="24" fill="#EBF7E7"/>
<path fill-rule="evenodd" clip-rule="evenodd" d="M17.3334 15.6665C16.5377 15.6665 15.7747 15.9826 15.2121 16.5452C14.6494 17.1078 14.3334 17.8709 14.3334 18.6665V33.5856L17.9596 29.9594C18.1471 29.7719 18.4015 29.6665 18.6667 29.6665H30.6667C31.4624 29.6665 32.2254 29.3504 32.788 28.7878C33.3506 28.2252 33.6667 27.4622 33.6667 26.6665V18.6665C33.6667 17.8709 33.3506 17.1078 32.788 16.5452C32.2254 15.9826 31.4624 15.6665 30.6667 15.6665H17.3334ZM13.7978 15.131C14.7355 14.1933 16.0073 13.6665 17.3334 13.6665H30.6667C31.9928 13.6665 33.2646 14.1933 34.2022 15.131C35.1399 16.0687 35.6667 17.3404 35.6667 18.6665V26.6665C35.6667 27.9926 35.1399 29.2644 34.2022 30.202C33.2646 31.1397 31.9928 31.6665 30.6667 31.6665H19.0809L14.0405 36.7069C13.7545 36.9929 13.3244 37.0785 12.9507 36.9237C12.577 36.7689 12.3334 36.4043 12.3334 35.9998V18.6665C12.3334 17.3404 12.8602 16.0687 13.7978 15.131ZM17.6667 19.9998C17.6667 19.4476 18.1144 18.9998 18.6667 18.9998H29.3334C29.8857 18.9998 30.3334 19.4476 30.3334 19.9998C30.3334 20.5521 29.8857 20.9998 29.3334 20.9998H18.6667C18.1144 20.9998 17.6667 20.5521 17.6667 19.9998ZM17.6667 25.3332C17.6667 24.7809 18.1144 24.3332 18.6667 24.3332H26.6667C27.219 24.3332 27.6667 24.7809 27.6667 25.3332C27.6667 25.8855 27.219 26.3332 26.6667 26.3332H18.6667C18.1144 26.3332 17.6667 25.8855 17.6667 25.3332Z" fill="#5CA22A"/>
</svg>
