<svg width="24" height="24" viewBox="0 0 24 24" fill="none" xmlns="http://www.w3.org/2000/svg">
    <path fill-rule="evenodd" clip-rule="evenodd" d="M10.4663 2.38446C10.9279 2.11229 11.4541 1.96875 11.9899 1.96875C12.5258 1.96875 13.0519 2.11229 13.5136 2.38446C13.9721 2.65477 14.3503 3.04214 14.6096 3.50678L21.7051 15.7491C21.7287 15.7897 21.7493 15.8319 21.767 15.8755C21.9505 16.3292 22.0203 16.821 21.9701 17.3079C21.92 17.7948 21.7515 18.262 21.4793 18.6688C21.2071 19.0756 20.8395 19.4097 20.4085 19.6418C19.9776 19.8739 19.4964 19.997 19.007 20.0005L18.9999 20.0005H4.99995C4.98167 20.0005 4.9635 20 4.94547 19.999C4.91021 20.001 4.87451 20.001 4.83846 19.9992C4.36055 19.9745 3.89548 19.8359 3.48205 19.5949C3.06863 19.3539 2.71885 19.0175 2.46194 18.6138C2.20502 18.2101 2.04841 17.7507 2.00518 17.2741C1.96196 16.7976 2.03337 16.3175 2.21346 15.8742C2.23096 15.8311 2.25144 15.7893 2.27476 15.7491L9.37027 3.5068C9.62957 3.04215 10.0078 2.65477 10.4663 2.38446ZM4.9447 18.002C4.96299 18.001 4.98141 18.0005 4.99995 18.0005H18.9959C19.158 17.9989 19.3173 17.9579 19.4601 17.881C19.6038 17.8036 19.7263 17.6923 19.817 17.5566C19.9078 17.421 19.9639 17.2653 19.9807 17.103C19.9954 16.9601 19.9791 16.816 19.9333 16.6804L12.8748 4.50196L12.8649 4.48463C12.7785 4.32833 12.6517 4.19804 12.4978 4.10732C12.3439 4.0166 12.1686 3.96875 11.9899 3.96875C11.8113 3.96875 11.6359 4.0166 11.4821 4.10732C11.3282 4.19804 11.2014 4.32833 11.1149 4.48463L11.1051 4.50196L4.0462 16.6811C4.00119 16.8134 3.98435 16.9539 3.99701 17.0935C4.01142 17.2523 4.06362 17.4055 4.14926 17.54C4.2349 17.6746 4.35149 17.7867 4.4893 17.8671C4.6271 17.9474 4.78213 17.9936 4.94143 18.0018C4.94252 18.0019 4.94361 18.0019 4.9447 18.002ZM12 8.00049C12.5523 8.00049 13 8.4482 13 9.00049V11.0005C13 11.5528 12.5523 12.0005 12 12.0005C11.4477 12.0005 11 11.5528 11 11.0005V9.00049C11 8.4482 11.4477 8.00049 12 8.00049ZM12 14.0005C12.5523 14.0005 13 14.4482 13 15.0005V15.0105C13 15.5628 12.5523 16.0105 12 16.0105C11.4477 16.0105 11 15.5628 11 15.0105V15.0005C11 14.4482 11.4477 14.0005 12 14.0005Z" fill="#FF4C25"/>
</svg>
